<?xml version="1.0" encoding="UTF-8" standalone="no"?>
<!-- Created with Inkscape (http://www.inkscape.org/) -->

<svg
   xmlns:dc="http://purl.org/dc/elements/1.1/"
   xmlns:cc="http://creativecommons.org/ns#"
   xmlns:rdf="http://www.w3.org/1999/02/22-rdf-syntax-ns#"
   xmlns:svg="http://www.w3.org/2000/svg"
   xmlns="http://www.w3.org/2000/svg"
   xmlns:xlink="http://www.w3.org/1999/xlink"
   xmlns:sodipodi="http://sodipodi.sourceforge.net/DTD/sodipodi-0.dtd"
   xmlns:inkscape="http://www.inkscape.org/namespaces/inkscape"
   version="1.1"
   width="24"
   height="24"
   id="svg2"
   inkscape:version="0.48.3.1 r9886"
   sodipodi:docname="keepass-locked.svg">
  <title
     id="title3030">KeePass Lock (black)</title>
  <sodipodi:namedview
     pagecolor="#ffffff"
     bordercolor="#666666"
     borderopacity="1"
     objecttolerance="10"
     gridtolerance="10"
     guidetolerance="10"
     inkscape:pageopacity="0"
     inkscape:pageshadow="2"
     inkscape:window-width="737"
     inkscape:window-height="592"
     id="namedview22"
     showgrid="false"
     inkscape:zoom="7.375"
     inkscape:cx="-11.94344"
     inkscape:cy="10.765519"
     inkscape:window-x="0"
     inkscape:window-y="0"
     inkscape:window-maximized="0"
     inkscape:current-layer="svg2" />
  <defs
     id="defs4">
    <linearGradient
       id="linearGradient3904">
      <stop
         id="stop3906"
         style="stop-color:#ffffff;stop-opacity:1"
         offset="0" />
      <stop
         id="stop3908"
         style="stop-color:#b8caff;stop-opacity:1"
         offset="1" />
    </linearGradient>
    <linearGradient
       id="linearGradient3870">
      <stop
         id="stop3872"
         style="stop-color:#ffffff;stop-opacity:1"
         offset="0" />
      <stop
         id="stop3874"
         style="stop-color:#2a53c6;stop-opacity:1"
         offset="1" />
    </linearGradient>
    <linearGradient
       x1="371.42859"
       y1="580.93359"
       x2="500.71429"
       y2="710.21936"
       id="linearGradient3876"
       xlink:href="#linearGradient3870"
       gradientUnits="userSpaceOnUse" />
    <linearGradient
       x1="279.99066"
       y1="526.63849"
       x2="548.58081"
       y2="795.2287"
       id="linearGradient3910"
       xlink:href="#linearGradient3904"
       gradientUnits="userSpaceOnUse" />
  </defs>
  <metadata
     id="metadata7">
    <rdf:RDF>
      <cc:Work
         rdf:about="">
        <dc:format>image/svg+xml</dc:format>
        <dc:type
           rdf:resource="http://purl.org/dc/dcmitype/StillImage" />
        <dc:title>KeePass Lock (black)</dc:title>
        <cc:license
           rdf:resource="http://www.gnu.org/licenses/old-licenses/gpl-2.0.html" />
        <dc:date>2013-04-01</dc:date>
        <dc:creator>
          <cc:Agent>
            <dc:title>David Lechner</dc:title>
          </cc:Agent>
        </dc:creator>
        <dc:source>https://en.wikipedia.org/wiki/File:KeePass_icon.svg</dc:source>
        <dc:contributor>
          <cc:Agent>
            <dc:title></dc:title>
          </cc:Agent>
        </dc:contributor>
      </cc:Work>
    </rdf:RDF>
  </metadata>
  <g
     id="g3853"
     transform="matrix(0.10759919,0,0,0.10759919,-32.421421,-57.65687)">
    <rect
       style="fill:#000000;fill-opacity:1;stroke:none"
       id="rect3801"
       y="709.14789"
       x="351.78574"
       height="16"
       width="125" />
    <path
       inkscape:connector-curvature="0"
       style="fill:#000000;fill-opacity:1;stroke:none"
       id="rect3803"
       d="m 351.78125,689.15625 0,16 53,0 0,-16 -53,0 z m 72,0 0,16 53,0 0,-16 -53,0 z" />
    <path
       inkscape:connector-curvature="0"
       style="fill:#000000;fill-opacity:1;stroke:none"
       id="rect3807"
       d="m 351.78125,669.15625 0,16 53,0 0,-16 -53,0 z m 72,0 0,16 53,0 0,-16 -53,0 z" />
    <rect
       style="fill:#000000;fill-opacity:1;stroke:none"
       id="rect3809"
       y="649.14789"
       x="351.78574"
       height="16"
       width="125" />
    <path
       inkscape:connector-curvature="0"
       style="font-size:medium;font-style:normal;font-variant:normal;font-weight:normal;font-stretch:normal;text-indent:0;text-align:start;text-decoration:none;line-height:normal;letter-spacing:normal;word-spacing:normal;text-transform:none;direction:ltr;block-progression:tb;writing-mode:lr-tb;text-anchor:start;baseline-shift:baseline;color:#000000;fill:#000000;fill-opacity:1;stroke:none;stroke-width:19;marker:none;visibility:visible;display:inline;overflow:visible;enable-background:accumulate;font-family:Sans;-inkscape-font-specification:Sans"
       id="path3832"
       d="m 414.28125,572.75 c -11.70527,0 -21.61153,5.4901 -28.6875,12.6875 -7.07597,7.1974 -11.87157,16.05803 -15.4375,24.625 -7.13185,17.13393 -9.28125,33.84375 -9.28125,33.84375 l -0.15625,1.25 19.15625,0 c 0.46666,-2.98621 2.59068,-15.26733 7.8125,-27.8125 2.97796,-7.1544 6.95263,-14.00013 11.46875,-18.59375 4.51612,-4.59362 9.00579,-7 15.125,-7 6.11921,0 10.64013,2.40638 15.15625,7 4.51612,4.59362 8.45954,11.43935 11.4375,18.59375 5.22182,12.54517 7.34584,24.82629 7.8125,27.8125 l 19.15625,0 -0.15625,-1.25 c 0,0 -2.11815,-16.70982 -9.25,-33.84375 -3.56593,-8.56697 -8.39278,-17.4276 -15.46875,-24.625 -7.07597,-7.1974 -16.98223,-12.6875 -28.6875,-12.6875 z" />
  </g>
</svg>
